<svg width="56" height="82" viewBox="0 0 56 82" fill="none" xmlns="http://www.w3.org/2000/svg">
<path d="M40.9437 35.356H15.1234C13.8675 35.356 12.8412 34.3433 12.8412 33.0738C12.8412 31.8179 13.854 30.7916 15.1234 30.7916H40.9572C42.2131 30.7916 43.2394 31.8044 43.2394 33.0738C43.2258 34.3297 42.1995 35.356 40.9437 35.356Z" fill="#194F82"/>
<path d="M40.9437 46.3216H15.1234C13.8675 46.3216 12.8412 45.3088 12.8412 44.0394C12.8412 42.7835 13.854 41.7572 15.1234 41.7572H40.9572C42.2131 41.7572 43.2394 42.7699 43.2394 44.0394C43.2394 45.3088 42.1995 46.3216 40.9437 46.3216Z" fill="#194F82"/>
<path d="M40.9437 57.3004H15.1234C13.8675 57.3004 12.8412 56.2877 12.8412 55.0183C12.8412 53.7624 13.854 52.7361 15.1234 52.7361H40.9572C42.2131 52.7361 43.2394 53.7488 43.2394 55.0183C43.2258 56.2741 42.1995 57.3004 40.9437 57.3004Z" fill="#194F82"/>
<path d="M28.0335 68.2659H15.1234C13.8675 68.2659 12.8412 67.2532 12.8412 65.9838C12.8412 64.7143 13.854 63.7016 15.1234 63.7016H28.0335C29.2894 63.7016 30.3157 64.7143 30.3157 65.9838C30.3157 67.2532 29.2894 68.2659 28.0335 68.2659Z" fill="#194F82"/>
<path d="M49.0599 13.3845H42.6318V10.3866C42.6318 9.13073 41.6188 8.10443 40.3496 8.10443H35.4069C35.596 5.97078 34.8534 3.79661 33.2597 2.20295C30.4237 -0.700482 25.8322 -0.767955 22.7533 2.20295C21.1327 3.7964 20.4171 5.98415 20.5927 8.10443H15.6501C14.3942 8.10443 13.3679 9.11716 13.3679 10.3866V13.3847H6.96695C3.19932 13.3847 0.133789 16.4502 0.133789 20.2178V75.1668C0.133789 78.9344 3.19932 81.9999 6.96695 81.9999H49.0329C52.8006 81.9999 55.8661 78.9344 55.8661 75.1668V20.2312C55.893 16.45 52.8411 13.3845 49.0599 13.3845ZM17.9728 12.6688H23.8066C25.7917 12.6013 26.7236 10.2109 25.6837 9.09021C24.887 7.94233 25.0219 6.41636 26.0213 5.43058C27.1151 4.35018 28.9922 4.33681 30.0862 5.43058C31.0719 6.41636 31.1935 7.94233 30.4104 9.07684C29.4515 10.5759 30.2754 12.561 32.2875 12.6554H38.1213V19.4347H17.9728V12.6688ZM51.3421 75.1668C51.3421 76.4226 50.3293 77.4489 49.0599 77.4489H7.00747C5.7516 77.4489 4.7253 76.4362 4.7253 75.1668V20.2312C4.7253 18.9753 5.73802 17.949 7.00747 17.949H13.4356V21.7302C13.4356 22.9861 14.4483 24.0124 15.7178 24.0124H40.4037C41.6596 24.0124 42.6859 22.9997 42.6859 21.7302V17.949H49.114C50.3699 17.949 51.3962 18.9617 51.3962 20.2312V75.1668H51.3421Z" fill="#194F82"/>
</svg>
